<?xml version="1.0" encoding="UTF-8"?>
<svg width="142px" height="40px" viewBox="0 0 142 40" version="1.1" xmlns="http://www.w3.org/2000/svg" xmlns:xlink="http://www.w3.org/1999/xlink">
    <!-- Generator: Sketch 52.2 (67145) - http://www.bohemiancoding.com/sketch -->
    <title>LOGOS</title>
    <desc>Created with Sketch.</desc>
    <g id="LOGOS" stroke="none" stroke-width="1" fill="none" fill-rule="evenodd">
        <g id="logo-capitalone_bw" transform="translate(14.000000, 1.000000)" fill="white">
            <path d="M72.3166261,27.4530466 C67.7671529,30.6484631 62.3927752,33.9927628 56.6184438,37.5107184 L56.3934699,37.6345813 C56.3184786,37.6841265 56.2937314,37.7834646 56.3434757,37.8823073 C56.3934699,37.956625 56.4937083,37.9811499 56.5934468,37.9318524 L56.7936735,37.832762 C61.6928563,35.3059578 67.3422021,32.2837018 72.9915479,29.187128 C73.016545,29.1621077 73.0415421,29.1621077 73.0912864,29.1375828 C72.766574,28.6173584 72.4916058,28.0475889 72.3166261,27.4530466 Z M102.113176,3.54749688 C94.9640036,-4.2806417 48.9443325,2.75477399 29.3715989,6.99088696 L28.921651,7.08997731 C28.8216626,7.11474991 28.7714184,7.18906768 28.7714184,7.28815803 C28.7966655,7.3872484 28.8714068,7.43679358 28.9713952,7.43679358 L29.4215931,7.33770322 C45.6197175,4.48885532 79.3408127,0.525240849 86.6149703,7.65974689 C88.8394628,9.83973489 88.2895265,12.6390376 85.7400717,15.9337921 C87.1149125,16.8256054 88.1147967,18.2128705 88.5647446,19.9469517 C98.5635872,13.3326701 105.287558,7.04043213 102.113176,3.54749688 Z" id="Shape" fill-rule="nonzero"></path>
            <g id="Group" transform="translate(0.000000, 15.636521)">
                <path d="M75.2162903,9.76040065 C75.3162787,12.5101582 77.0660761,14.7642162 79.3660598,14.7642162 C83.8155445,14.7642162 85.6903275,9.36379146 85.565342,5.74724098 C85.4653535,2.99748344 83.665312,0.743177713 81.3908253,0.743177713 C77.5407711,0.743177713 75.0913047,6.11882983 75.2162903,9.76040065 Z M72.8665624,9.61176509 C72.6915827,4.9049729 76.4159014,0.123862952 81.8155262,0.123862952 C85.4148593,0.123862952 87.7895844,2.50203163 87.9145699,6.14360243 C88.0895496,11.0981205 84.614952,15.6315045 78.9656062,15.6315045 C75.3662729,15.6315045 72.9915479,13.2533359 72.8665624,9.61176509 Z M21.797476,8.37313557 C21.5972491,8.44745334 21.3472781,8.52201883 21.0475628,8.57131629 C20.7475975,8.64588178 20.1726641,8.74472443 19.3727567,8.86858738 C18.8228205,8.96767774 18.4228667,9.0667681 18.1978927,9.24017623 C17.9729188,9.3890595 17.8479333,9.5869925 17.8229362,9.80994582 C17.772942,10.0576718 17.8479333,10.2561002 18.0729072,10.4044879 C18.2978812,10.5528758 18.6478406,10.6274413 19.1477827,10.6274413 C19.5227394,10.6274413 19.897696,10.5778961 20.2726525,10.4540332 C20.6476091,10.3301702 20.9475743,10.1812869 21.1975454,9.98335391 C21.3725252,9.83471841 21.4975107,9.63678541 21.5974991,9.41358436 C21.6224963,9.24017623 21.6974875,8.89335997 21.797476,8.37313557 Z M26.4969318,5.47474248 C26.4716847,5.89587653 26.3969434,6.29248569 26.2969549,6.93632532 L25.4970476,11.3458464 C25.4220562,11.7424556 25.5720389,12.039479 25.9469955,12.2624322 L25.9219983,12.4358404 L21.3725252,12.4358404 L21.3225309,11.3210738 C20.6726062,11.7174353 19.8726988,12.0392312 19.1477827,12.2376596 C18.4231167,12.4108201 17.8479333,12.5101582 16.9730346,12.5101582 C15.4984554,12.5101582 14.6735508,12.3615227 14.0983675,11.8660708 C13.4984369,11.3458464 13.2234687,10.9990302 13.2484659,10.280625 C13.273463,9.85949099 13.4731899,9.33926659 13.7984022,8.96767774 C14.1233645,8.59608888 14.5483154,8.34836297 14.9982633,8.12540966 C15.4729583,7.90270408 16.0231445,7.75382081 16.823052,7.62995785 C17.6229593,7.5060949 18.7478291,7.38223195 20.2476554,7.258369 C21.0225657,7.18405123 21.5225078,7.01064309 21.7474818,6.93632532 C22.0724442,6.81246237 22.1724325,6.68859942 22.2221767,6.44087351 C22.2974181,5.99471916 22.1724325,5.72246839 21.5475049,5.59860544 C19.922693,5.27656176 16.8480491,5.79678616 15.2732314,6.1931476 L16.123133,3.88904897 C18.1978927,3.59202562 20.1726641,3.39359716 22.2221767,3.39359716 C25.4720504,3.3690723 26.5219289,4.28565814 26.4969318,5.47474248 Z M39.6454093,12.4358404 L41.2202269,3.6167982 L45.5697233,3.6167982 L43.9949056,12.4358404 L39.6454093,12.4358404 Z M41.4701979,1.58544579 C41.5951835,0.867040665 42.7453003,0.272498495 44.0451497,0.272498495 C45.3447493,0.272498495 46.2696422,0.867040665 46.1446567,1.58544579 C46.0196712,2.30385091 44.8448072,2.89839308 43.5699548,2.89839308 C42.2701053,2.89839308 41.3202153,2.30385091 41.4701979,1.58544579 Z M61.0179344,8.39790816 C60.8179575,8.47222593 60.5679865,8.5465437 60.2680212,8.59608888 C59.968056,8.67040665 59.3931226,8.76949701 58.5682181,8.89335997 C58.0182817,8.9922026 57.6183281,9.09154069 57.3933541,9.26494883 C57.1933772,9.41358436 57.0683917,9.61151736 57.0183975,9.83471841 C56.9684033,10.0824443 57.0683917,10.280625 57.2683686,10.4290129 C57.4933425,10.5778961 57.843302,10.6519661 58.3682412,10.6519661 C58.7431978,10.6519661 59.1181544,10.602421 59.493111,10.478558 C59.8680675,10.3546951 60.1680328,10.2060595 60.4180039,10.0081265 C60.5927336,9.85924325 60.7177192,9.66131027 60.7929605,9.43810923 C60.8429547,9.26494883 60.917946,8.91813255 61.0179344,8.39790816 Z M65.6923931,5.49951508 C65.667396,5.92064911 65.5924047,6.31701056 65.4674191,6.96085019 L64.6925089,11.370619 C64.6175176,11.7669805 64.7675002,12.0642516 65.1424568,12.2869572 L65.1174597,12.4358404 L60.5679865,12.4358404 L60.5429894,11.3210738 C59.8680675,11.7174353 59.0681602,12.0392312 58.3682412,12.2376596 C57.6433252,12.4358404 57.0683917,12.5101582 56.1934931,12.5101582 C54.7186638,12.5101582 53.8937593,12.3615227 53.3188259,11.8660708 C52.7188953,11.3455987 52.4439273,10.9990302 52.4689243,10.280625 C52.4941714,9.85949099 52.6938983,9.33926659 53.0188607,8.96767774 C53.3438231,8.59608888 53.7687738,8.34836297 54.2187217,8.12540966 C54.6936667,7.90270408 55.243853,7.75382081 56.0437604,7.60518527 C56.8434178,7.48132231 57.9682875,7.35745936 59.4681138,7.23359641 C60.2432741,7.15927864 60.7179691,6.9858705 60.9429431,6.91155273 C61.2679054,6.78768978 61.392891,6.66382683 61.4428852,6.3910806 C61.5178765,5.94517398 61.3678939,5.67292321 60.7679633,5.54906025 C59.1181544,5.22676886 56.0685075,5.74724098 54.4936899,6.1433547 L55.3433415,3.83950379 C57.4430983,3.5422327 59.3681254,3.34405198 61.4426353,3.34405198 C64.6675118,3.39384489 65.7173902,4.31043074 65.6923931,5.49951508 Z M12.6485353,9.26494883 C11.2237004,9.53744732 10.4487901,9.66131027 9.04920215,9.66131027 C6.97419242,9.66131027 5.32438346,8.64563406 5.39937477,6.76291718 C5.4743661,5.52428767 6.94919531,2.87362049 10.7487553,2.87362049 C11.9486164,2.87362049 12.8735093,3.07180121 14.1233645,3.79020634 L14.6733009,0.743177713 C12.9734977,0.0990903616 11.848628,-6.4878658e-16 10.3737987,0.0247725904 C5.39937477,0.0743177713 0.624927636,2.30385091 0.0499942109,6.86200755 C-0.54993632,11.4944819 5.14940373,12.6587937 7.67411137,12.6340211 C9.12394349,12.6340211 10.6485169,12.5597033 12.0736019,12.4358404 L12.6485353,9.26494883 Z M47.9694454,3.56725302 L48.2694106,1.78362651 L52.8188838,0.792722894 L52.3439388,3.56725302 L54.5686812,3.56725302 L54.1437304,5.35087953 L51.9939794,5.35087953 L50.6941298,12.4360882 C50.6941298,12.4360882 46.3196364,12.4110678 46.2946393,12.4360882 L47.5942388,5.37589985 L45.9444298,5.37589985 L46.2693922,3.59227334 L47.9691954,3.59227334 L47.9691954,3.56725302 L47.9694454,3.56725302 Z M70.1168808,12.4358404 L65.667396,12.4358404 L67.8918884,0.148635542 L72.2163877,0.272498495 L70.1168808,12.4358404 Z M33.896075,5.6976958 C33.3211416,5.6976958 32.8211995,5.87110393 32.3462544,6.2179202 C31.8963065,6.56473646 31.5963413,7.06018827 31.4966028,7.72929594 C31.3716173,8.49724624 31.4466086,9.04224324 31.7465738,9.3890595 C32.0465392,9.73562807 32.4964871,9.9092839 33.0961676,9.9092839 C33.4963713,9.9092839 33.896075,9.83496615 34.1960402,9.68633059 C34.5709968,9.48814987 34.8209679,9.28996914 35.0459419,8.96817319 C35.2959129,8.62135692 35.4458956,8.24976807 35.5206369,7.80386144 C35.6456224,7.11022891 35.5458839,6.5900045 35.2206716,6.24318824 C34.8959592,5.87110393 34.4710084,5.6976958 33.896075,5.6976958 Z M25.9719925,15.482869 L28.0967465,3.66634339 L31.9213037,3.66634339 L31.6213384,5.17771913 C31.9463008,4.73156477 32.47099,4.35997592 33.2209032,4.06295255 C33.9458192,3.76568148 34.7959708,3.54248043 35.6956166,3.54248043 C36.6955008,3.54248043 37.2954314,3.59202562 38.0453445,3.98838706 C38.7952577,4.38499623 39.2951998,4.92999322 39.5949151,5.67317094 C39.8703832,6.39132834 39.9453745,7.18405123 39.7953918,8.07586448 C39.5454208,9.53744732 38.8205048,10.6769865 37.6453908,11.5192545 C36.4702769,12.3615227 35.4208984,12.5844759 33.9458192,12.5844759 C33.4208801,12.5844759 32.9709322,12.5349308 32.5959755,12.4358404 C32.246266,12.3367501 31.9460508,12.2376596 31.7210768,12.0890241 C31.5211,11.9403886 31.296376,11.7669805 30.9964107,11.4449368 L30.2964918,15.482869 L25.9719925,15.482869 Z M104.912601,6.78768978 C104.887605,6.06928465 104.537645,5.59835772 103.787732,5.59835772 C102.012937,5.59835772 100.113407,9.06652037 99.7881948,10.4540332 C102.688109,10.4540332 104.962846,8.71995183 104.912601,6.78768978 Z M105.287558,12.2128871 L105.637518,12.4358404 C104.762619,14.1946943 102.987824,15.606732 100.913065,15.606732 C99.2132618,15.606732 97.8136734,14.4919654 97.7386826,12.3862952 C97.6136973,8.62086148 101.163036,5.10315363 104.087697,5.10315363 C105.337553,5.10315363 106.512416,5.64815062 106.56241,6.98611823 C106.662149,9.98360165 102.412641,10.9001876 99.613215,10.9745053 C99.5132269,11.296549 99.4882296,11.59382 99.5132269,12.0892719 C99.5632214,13.3279014 100.313134,14.3931228 101.887952,14.3931228 C103.238046,14.3433299 104.587889,13.2781085 105.287558,12.2128871 Z" id="Shape" fill-rule="nonzero"></path>
                <path d="M87.8398285,6.68859942 C88.1397938,6.63905423 88.639736,6.58950906 88.8397127,6.58950906 C89.1646751,6.58950906 89.4646404,6.63905423 89.4646404,6.96109792 C89.4646404,7.15952636 89.1396781,8.49699852 89.0646867,8.7942696 L88.3897648,11.7669805 C88.1145467,12.9808374 87.8148315,14.2442395 87.5648603,15.2599157 L89.3146578,15.2599157 L90.2892949,10.5781439 C93.2889476,7.50634262 94.4390644,6.49066642 95.1387334,6.49066642 C95.4636958,6.49066642 95.6636725,6.66407455 95.6886697,7.03566341 C95.7136668,7.58041267 95.3637073,8.8190422 95.2387218,9.16610619 L94.2388376,12.5847237 C94.0138636,13.3529217 93.8386339,14.0463065 93.863881,14.5417583 C93.8888781,15.284936 94.3638231,15.6315045 95.0384949,15.6315045 C96.3135973,15.6315045 97.2384902,14.3185573 98.0381473,13.0303825 L97.8136734,12.6092485 C97.488711,13.129473 96.738798,14.2687644 96.1388676,14.2687644 C95.9388907,14.2687644 95.763911,14.1449015 95.763911,13.8228578 C95.7389139,13.4264963 95.9138936,12.8319541 96.0388791,12.4355927 L97.1387518,8.42243302 C97.4387174,7.30766646 97.5887,6.61403392 97.5637027,6.21767247 C97.5384553,5.47449476 97.0887576,5.12792622 96.4135858,5.12792622 C95.2637189,5.12792622 93.7391455,5.94542171 90.5142688,9.63653768 L90.4642746,9.63653768 L90.8644783,7.85291117 C91.0892023,6.86200755 91.2891791,5.84608362 91.514403,5.15269881 C90.3895333,5.54930799 88.8147157,5.99496688 87.8148315,6.1931476 L87.8398285,6.68859942 Z" id="Path"></path>
            </g>
            <path d="M106.837628,19.1294563 C106.837628,18.237643 107.562545,17.5935557 108.412446,17.5935557 C109.262348,17.5935557 109.962267,18.237643 109.962267,19.1294563 C109.962267,20.0212695 109.237601,20.6653569 108.412446,20.6653569 C107.537298,20.6653569 106.837628,20.0212695 106.837628,19.1294563 Z M108.412197,20.4176309 C109.112115,20.4176309 109.662052,19.872634 109.662052,19.1294563 C109.662052,18.4110511 109.112115,17.8660542 108.412197,17.8660542 C107.712277,17.8660542 107.162341,18.4110511 107.162341,19.1294563 C107.137594,19.872634 107.68753,20.4176309 108.412197,20.4176309 Z M108.062487,20.0212695 L107.787269,20.0212695 L107.787269,18.2624156 L108.46219,18.2624156 C108.887142,18.2624156 109.087118,18.4110511 109.087118,18.7578674 C109.087118,19.0799111 108.887142,19.203774 108.612423,19.2533192 L109.112365,20.0212695 L108.8124,20.0212695 L108.337455,19.2533192 L108.03749,19.2533192 L108.03749,20.0212695 L108.062487,20.0212695 Z M108.38745,19.0303659 C108.612173,19.0303659 108.8124,19.0055933 108.8124,18.7330948 C108.8124,18.5101415 108.612423,18.4853689 108.412197,18.4853689 L108.03724,18.4853689 L108.03724,19.0303659 L108.38745,19.0303659 Z" id="Shape" fill-rule="nonzero"></path>
        </g>
    </g>
</svg>